<svg width="93" height="73" viewBox="0 0 93 73" fill="none" xmlns="http://www.w3.org/2000/svg">
<path opacity="0.75" d="M93 72.9412C72.3976 72.9412 55.6727 56.6001 55.6727 36.4706C55.6727 16.3411 72.3976 -1.80111e-06 93 0L93 17.5851L93 72.9412Z" fill="#536DFE"/>
<path opacity="0.75" d="M74.6548 72.9412C54.0524 72.9412 37.3275 56.6001 37.3275 36.4706C37.3275 16.3411 54.0524 -1.80111e-06 74.6548 0L74.6548 17.5851L74.6548 72.9412Z" fill="#3F51B5"/>
<path opacity="0.75" d="M55.962 72.9412C35.3597 72.9412 18.6347 56.6001 18.6347 36.4706C18.6347 16.3411 35.3597 -1.80111e-06 55.962 0L55.962 17.5851L55.962 72.9412Z" fill="#F44336"/>
<path opacity="0.75" d="M37.3273 72.9412C16.7249 72.9412 -4.30951e-05 56.6001 -4.13353e-05 36.4706C-3.95756e-05 16.3411 16.7249 -1.80111e-06 37.3273 0L37.3273 17.5851L37.3273 72.9412Z" fill="#FFA000"/>
</svg>
